# xmcd
#
# Track frame offsets:
#	150
#	12220
#	26288
#	43056
#	60190
#	78438
#	94945
#	114340
#	131306
#	147551
#	161995
#	178034
#
# Disc length: 2686 seconds
#
# Revision: 1
# Processed by: cddbd v1.5.1PL0 Copyright (c) Steve Scherf et al.
# Submitted via: audiograbber 1.83.01
#
DISCID=950a7c0c
DTITLE=Shania Twain - Wild And Wicked
DYEAR=1900
DGENRE=Country
TTITLE0=Bite MyLip
TTITLE1=Wild And Wicked
TTITLE2=Send It With My Love
TTITLE3=(Don't Gimme That) Once Over
TTITLE4=Hate To Love
TTITLE5=Luv Eyes
TTITLE6=I Lost My Heart When I Fouynd You
TTITLE7=The Rythm Made Me Do It
TTITLE8=Two Heart One Love
TTITLE9=Half Breed
TTITLE10=For The Love Of Him
TTITLE11=For The Love Of Him (Dance Mix)
EXTD=
EXTT0=
EXTT1=
EXTT2=
EXTT3=
EXTT4=
EXTT5=
EXTT6=
EXTT7=
EXTT8=
EXTT9=
EXTT10=
EXTT11=
PLAYORDER=
